PathFileType	4	(X/Y/Z)	/Volumes/GoogleDrive/My Drive/Research/Stanford/Projects/Digital Athlete Project/Sprinting/Sprint Simulation/sprinter/subjects/JA1/experimental_data/TRC/run0500cms.trc
DataRate	CameraRate	NumFrames	NumMarkers	Units	OrigDataRate	OrigDataStartFrame	OrigNumFrames
250.000000	250.000000	4	53	mm	250.000000	285	569
Frame#	Time	C7			RSH			LSH			MAN			T7			LARM			LELB			LFOREARM			LWR			RARM			RELB			RFOREARM			RWR			RASI			LASI			SACR			P1			P2			P3			LTHLP			LTHLD			LTHAP			LLEPI			LPAT			LTIAP			LTIAD			LTILAT			LLMAL			LHEEL			LMFS			LMFL			LP1MT			LTOE			LP5MT			RTHLP			RTHLD			RTHAP			RTHAD			RLEPI			RPAT			RTIAP			RTIAD			RTILAT			RLMAL			RHEEL			RMFS			RMFL			RP1MT			RTOE			RP5MT			LTHAD			x52			x53			
		X1	Y1	Z1	X2	Y2	Z2	X3	Y3	Z3	X4	Y4	Z4	X5	Y5	Z5	X6	Y6	Z6	X7	Y7	Z7	X8	Y8	Z8	X9	Y9	Z9	X10	Y10	Z10	X11	Y11	Z11	X12	Y12	Z12	X13	Y13	Z13	X14	Y14	Z14	X15	Y15	Z15	X16	Y16	Z16	X17	Y17	Z17	X18	Y18	Z18	X19	Y19	Z19	X20	Y20	Z20	X21	Y21	Z21	X22	Y22	Z22	X23	Y23	Z23	X24	Y24	Z24	X25	Y25	Z25	X26	Y26	Z26	X27	Y27	Z27	X28	Y28	Z28	X29	Y29	Z29	X30	Y30	Z30	X31	Y31	Z31	X32	Y32	Z32	X33	Y33	Z33	X34	Y34	Z34	X35	Y35	Z35	X36	Y36	Z36	X37	Y37	Z37	X38	Y38	Z38	X39	Y39	Z39	X40	Y40	Z40	X41	Y41	Z41	X42	Y42	Z42	X43	Y43	Z43	X44	Y44	Z44	X45	Y45	Z45	X46	Y46	Z46	X47	Y47	Z47	X48	Y48	Z48	X49	Y49	Z49	X50	Y50	Z50	X51	Y51	Z51	X52	Y52	Z52	X53	Y53	Z53	
285	1.140000	317.532318	1474.574097	157.952286	354.803406	1460.038208	333.310028	337.674347	1439.475952	-9.433318	450.518890	1360.205566	165.856247	231.305328	1295.756592	173.760895	276.507904	1249.376343	-101.599228	227.013748	1122.664551	-138.855011	328.191284	1021.475281	-108.084351	407.241699	925.502930	-85.595436	287.399811	1291.232544	430.088043	229.192566	1177.669800	481.391785	336.671265	1081.699341	456.974518	423.298859	991.841125	437.463654	398.418732	995.779236	273.744507	361.921326	1006.455383	60.715225	198.996536	1031.929321	203.305435	177.090118	1008.347168	151.273331	190.576660	999.513977	256.572418	155.379059	947.875488	202.919296	335.861542	698.338684	8.446383	380.769775	595.392517	28.325594	469.616119	742.410828	64.010887	421.820190	484.947083	54.061623	511.651703	504.775543	109.719139	383.006256	329.270020	157.007095	309.042816	212.702179	176.597763	317.358856	274.611938	87.340950	210.740921	97.246338	138.816391	138.367401	76.353081	188.628418	306.923523	83.776932	192.331665	274.658813	57.337051	133.194443	360.512512	39.946514	225.743881	407.132172	42.923466	188.212982	332.056091	23.798252	100.514328	407.175262	733.530090	370.923065	467.471619	636.788208	361.522980	511.508881	748.204224	271.048004	553.128906	659.808899	266.604950	505.275116	513.178711	321.993744	577.278748	481.581329	258.426422	313.882721	510.720764	235.601181	194.174164	544.777161	228.951614	309.278076	548.971130	323.335846	80.715012	595.510193	290.821564	56.742306	667.414795	239.399857	50.977066	491.014557	252.335892	31.034239	542.670898	305.874908	-16.319780	440.644409	222.104828	1.581557	415.440704	260.872131	-18.663527	481.103973	340.847717	493.632416	631.885071	78.885689	471.744080	941.589233	426.552490	447.419067	876.724976	-74.165443
286	1.144000	337.826294	1474.421143	157.568756	374.805664	1459.852661	333.296234	359.473480	1439.518311	-9.607645	471.015198	1360.027588	166.201767	251.641968	1295.901001	173.615204	302.522583	1248.343994	-102.222519	256.737000	1120.353516	-139.160599	360.829315	1023.137512	-106.899315	442.812988	929.813538	-83.112396	304.399048	1292.390381	429.928589	243.889816	1179.667236	481.190369	348.176392	1079.384399	458.146271	431.452118	986.162964	440.317474	418.962616	996.716736	273.599915	381.808777	1005.708008	61.080532	218.896179	1032.331665	203.320969	196.885910	1008.851074	151.397949	209.517319	999.755249	257.537537	177.103104	948.207581	202.849792	350.466888	696.949646	8.889907	393.780579	593.347778	28.276806	485.115662	737.405090	65.421814	431.740753	480.123474	54.835030	521.298035	496.553772	111.473701	388.873016	326.168121	157.230026	312.306610	211.485977	177.018906	321.759308	273.015106	87.998131	211.800919	98.233917	138.965103	139.087616	78.589584	189.035843	307.338287	83.828209	192.113983	275.128784	57.769669	133.375839	360.499634	39.840603	225.888565	407.167267	42.646790	188.305984	331.847260	23.842730	100.532509	432.839355	738.698975	371.082153	497.731964	644.875061	362.323669	536.182556	756.256287	270.988220	581.279541	669.677551	266.603455	539.236450	520.849121	322.663910	611.909729	491.835632	258.614502	350.021088	511.353058	238.275314	227.005188	542.653809	229.283936	341.994110	549.494202	323.855865	111.593811	588.711548	291.948090	84.876678	660.184509	240.899139	86.109138	483.515503	251.775497	63.953781	533.483582	305.869293	21.452400	431.151123	219.983383	39.823669	406.077942	259.119080	16.679724	469.745605	339.866974	506.725037	625.275757	80.381165	478.022827	934.030212	430.346985	484.481201	882.381592	-71.022697
287	1.148000	358.071472	1474.419800	157.482376	394.816254	1460.149658	333.660004	380.960846	1439.979370	-9.457597	491.509155	1360.153687	166.744171	272.127136	1296.092285	172.921982	328.057556	1247.829834	-102.375664	286.057831	1118.851562	-139.715408	393.016571	1025.158936	-105.621613	478.133759	935.161194	-80.561401	321.531128	1293.964722	430.033936	258.605682	1182.174438	480.975433	354.757294	1079.746216	464.092407	437.728668	982.040100	444.503387	439.128967	997.428345	273.980927	401.981750	1005.019775	61.229244	239.064331	1033.448853	203.477829	217.044083	1009.855408	151.505157	231.101776	1001.439331	256.365540	194.197342	949.817322	203.599670	365.220764	696.118164	9.346357	406.364136	591.668823	28.291828	500.804626	732.008179	66.388916	441.101807	476.053894	55.517441	530.103760	488.507141	113.358627	394.800537	323.525116	157.584061	315.637482	210.593781	177.093613	325.764771	272.135742	88.510986	212.782120	99.192772	139.028000	139.713028	81.125130	189.225479	308.430481	84.062218	192.066544	275.571899	58.445847	133.605072	360.430908	39.738884	225.690414	407.135681	42.513115	188.563171	331.708649	23.885799	100.770493	458.110992	744.228943	371.324982	527.210754	653.300598	362.862122	560.589172	764.798157	271.193756	608.935059	680.045532	266.748291	572.529114	528.967529	322.611816	646.165222	502.753174	259.311432	384.978943	512.622192	239.685501	258.080505	541.493164	228.077591	374.486755	550.341675	324.454559	142.288223	581.141602	292.398285	112.725769	652.319946	242.551041	121.344788	475.615356	251.209412	96.955940	523.977051	305.739136	59.074230	421.119965	218.469208	78.452187	396.269958	257.458069	52.400993	457.865845	338.751007	519.799744	618.968018	81.714607	484.129181	927.399353	433.548492	521.394592	889.419800	-67.824547
288	1.152000	378.264282	1474.668945	157.377502	414.521881	1460.750854	333.603241	402.430634	1440.745483	-9.452255	512.031250	1360.720703	167.327393	292.804291	1296.538330	172.228149	353.421967	1247.879761	-102.711823	314.893250	1117.952881	-140.032669	424.617767	1028.504883	-104.169632	512.895691	941.879395	-77.316299	338.263214	1295.995728	429.703613	273.385590	1185.100586	480.880005	366.835114	1078.504150	464.445435	445.935028	977.958618	446.633148	459.440155	998.387939	274.086426	422.238190	1004.595215	61.331913	259.577332	1034.727051	203.343948	237.400726	1011.151917	151.379028	251.771790	1002.868530	256.168304	214.428284	951.309570	203.920258	380.155334	695.590637	9.634791	418.767334	590.173340	28.426693	516.448303	726.341431	67.469818	449.793823	472.522522	55.909451	537.560425	480.649872	116.188148	400.535614	321.042786	157.722275	318.863922	209.903885	177.129211	329.463196	271.877716	88.870033	214.073669	100.089966	139.422638	140.262405	83.759552	189.244812	312.457214	84.344795	192.768585	276.385895	57.456745	134.254074	360.348175	39.646347	225.841980	406.954620	42.348434	188.559586	331.607697	23.957483	100.753891	482.845612	749.889404	371.568665	556.013367	662.102295	363.564850	584.713196	773.645203	271.627472	636.257629	690.649475	267.089325	605.367676	537.791992	323.330170	679.774963	514.112610	259.696533	418.699005	514.113708	238.932526	290.603058	538.958740	228.281586	406.581207	551.386597	324.783234	172.920502	573.173340	292.902893	140.493057	643.649780	243.671738	156.618530	467.329987	250.421951	130.106400	514.087341	305.586700	97.228394	410.860626	216.773270	117.409836	386.276031	255.780960	88.603813	445.811768	337.786224	532.205994	612.837585	83.441216	490.170502	921.729980	436.671906	557.762939	897.851990	-63.668087
